<svg width="24" height="24" viewBox="0 0 24 24" fill="none" xmlns="http://www.w3.org/2000/svg">
<path fill-rule="evenodd" clip-rule="evenodd" d="M12 24C15.1826 24 18.2348 22.7357 20.4853 20.4853C22.7357 18.2348 24 15.1826 24 12C24 8.8174 22.7357 5.76515 20.4853 3.51472C18.2348 1.26428 15.1826 0 12 0C8.8174 0 5.76515 1.26428 3.51472 3.51472C1.26428 5.76515 0 8.8174 0 12C0 15.1826 1.26428 18.2348 3.51472 20.4853C5.76515 22.7357 8.8174 24 12 24ZM9.48 7.66286C9.23627 7.43575 8.91391 7.31211 8.58082 7.31799C8.24773 7.32386 7.92993 7.4588 7.69436 7.69436C7.4588 7.92993 7.32386 8.24773 7.31799 8.58082C7.31211 8.91391 7.43575 9.23627 7.66286 9.48L10.1829 12L7.66286 14.52C7.53654 14.6377 7.43522 14.7796 7.36495 14.9374C7.29467 15.0951 7.25689 15.2653 7.25384 15.438C7.2508 15.6106 7.28255 15.7821 7.34722 15.9422C7.41188 16.1023 7.50813 16.2477 7.63022 16.3698C7.75231 16.4919 7.89774 16.5881 8.05783 16.6528C8.21793 16.7174 8.38941 16.7492 8.56204 16.7462C8.73467 16.7431 8.90492 16.7053 9.06264 16.6351C9.22035 16.5648 9.36229 16.4635 9.48 16.3371L12 13.8171L14.52 16.3371C14.6377 16.4635 14.7796 16.5648 14.9374 16.6351C15.0951 16.7053 15.2653 16.7431 15.438 16.7462C15.6106 16.7492 15.7821 16.7174 15.9422 16.6528C16.1023 16.5881 16.2477 16.4919 16.3698 16.3698C16.4919 16.2477 16.5881 16.1023 16.6528 15.9422C16.7174 15.7821 16.7492 15.6106 16.7462 15.438C16.7431 15.2653 16.7053 15.0951 16.6351 14.9374C16.5648 14.7796 16.4635 14.6377 16.3371 14.52L13.8171 12L16.3371 9.48C16.4635 9.36229 16.5648 9.22035 16.6351 9.06264C16.7053 8.90492 16.7431 8.73467 16.7462 8.56204C16.7492 8.38941 16.7174 8.21793 16.6528 8.05783C16.5881 7.89774 16.4919 7.75231 16.3698 7.63022C16.2477 7.50813 16.1023 7.41188 15.9422 7.34722C15.7821 7.28255 15.6106 7.2508 15.438 7.25384C15.2653 7.25689 15.0951 7.29467 14.9374 7.36495C14.7796 7.43522 14.6377 7.53654 14.52 7.66286L12 10.1829L9.48 7.66286Z" fill="#464646"/>
</svg>
