<svg width="49" height="45" viewBox="0 0 49 45" fill="none" xmlns="http://www.w3.org/2000/svg">
<path d="M10.0053 21.1973C9.98837 21.0172 10.0121 20.8359 10.0751 20.6648C10.138 20.4936 10.2388 20.3365 10.371 20.2033C10.5031 20.07 10.6638 19.9636 10.8429 19.8909C11.0219 19.8181 11.2154 19.7804 11.4109 19.7804H14.1058C14.4801 19.7804 14.8391 19.9178 15.1038 20.1624C15.3684 20.4069 15.5171 20.7386 15.5171 21.0845V33.473C15.5171 33.8188 15.3684 34.1505 15.1038 34.3951C14.8391 34.6396 14.4801 34.777 14.1058 34.777H12.5774C12.2242 34.7771 11.8837 34.6548 11.6234 34.4342C11.363 34.2137 11.2016 33.9109 11.171 33.5858L10.0053 21.1973ZM19.751 20.6769C19.751 20.1318 20.118 19.6441 20.6508 19.412C21.8144 18.9047 23.7965 17.8856 24.6906 16.5079C25.8429 14.7318 26.0603 11.5231 26.0956 10.7883C26.1005 10.6853 26.0977 10.5823 26.1125 10.4805C26.3037 9.20713 28.9633 10.6944 29.983 12.2671C30.5369 13.1199 30.6075 14.2408 30.5496 15.1165C30.4868 16.0528 30.1898 16.9571 29.8983 17.8556L29.2773 19.7706H36.9386C37.1567 19.7706 37.3717 19.8173 37.567 19.907C37.7622 19.9967 37.9324 20.127 38.064 20.2876C38.1956 20.4483 38.2851 20.6349 38.3255 20.8329C38.366 21.0309 38.3562 21.2348 38.297 21.4287L34.5076 33.8277C34.424 34.1011 34.246 34.3419 34.0006 34.5132C33.7553 34.6846 33.4561 34.7772 33.1486 34.777H21.1624C20.788 34.777 20.4291 34.6396 20.1644 34.3951C19.8997 34.1505 19.751 33.8188 19.751 33.473V20.6769Z" fill="#6B74C4" stroke="#6B74C4" stroke-width="2" stroke-linecap="round" stroke-linejoin="round"/>
</svg>
