<svg width="53" height="45" viewBox="0 0 53 45" fill="none" xmlns="http://www.w3.org/2000/svg">
<path d="M33 31.1251V34.3751H10.25V31.1251C10.25 31.1251 10.25 24.6251 21.625 24.6251C33 24.6251 33 31.1251 33 31.1251ZM27.3125 15.6876C27.3125 14.5627 26.9789 13.4631 26.354 12.5278C25.729 11.5924 24.8408 10.8635 23.8015 10.433C22.7623 10.0025 21.6187 9.88989 20.5154 10.1093C19.4122 10.3288 18.3987 10.8705 17.6033 11.6659C16.8079 12.4613 16.2662 13.4747 16.0468 14.578C15.8273 15.6813 15.94 16.8248 16.3704 17.8641C16.8009 18.9033 17.5299 19.7916 18.4652 20.4165C19.4005 21.0415 20.5001 21.3751 21.625 21.3751C23.1334 21.3751 24.5801 20.7758 25.6467 19.7092C26.7133 18.6426 27.3125 17.196 27.3125 15.6876ZM32.9025 24.6251C33.9015 25.3981 34.7189 26.3808 35.2972 27.5038C35.8756 28.6268 36.2008 29.8628 36.25 31.1251V34.3751H42.75V31.1251C42.75 31.1251 42.75 25.2263 32.9025 24.6251ZM31.375 10.0001C30.2566 9.99486 29.163 10.3292 28.2388 10.9588C29.2258 12.338 29.7566 13.9915 29.7566 15.6876C29.7566 17.3836 29.2258 19.0371 28.2388 20.4163C29.163 21.0459 30.2566 21.3803 31.375 21.3751C32.8834 21.3751 34.3301 20.7758 35.3967 19.7092C36.4633 18.6426 37.0625 17.196 37.0625 15.6876C37.0625 14.1791 36.4633 12.7325 35.3967 11.6659C34.3301 10.5993 32.8834 10.0001 31.375 10.0001Z" fill="#696969"/>
</svg>
