<svg width="596" height="171" viewBox="0 0 596 171" fill="none" xmlns="http://www.w3.org/2000/svg">
<path d="M0.388916 157.142C26.5573 151.756 48.076 118.907 79.2998 113.386C95.9416 110.443 109.274 116.171 124.148 125.07C139.023 133.97 136.111 137.813 169.565 144.674C197.171 150.336 204.393 89.2925 231.444 91.6378C258.496 93.9831 271.008 20.5906 299.569 26.7171C328.13 32.8437 333.836 17.0038 360.683 47.0237C387.531 77.0437 412.335 7.06915 446.036 0.942634C479.738 -5.18388 488.516 59.8419 504.51 57.3913C520.504 54.9407 534.905 101.276 548.614 108.015C562.323 114.754 566.211 90.273 595.343 90.273" stroke="#45579F" stroke-opacity="0.87" stroke-width="4" stroke-linecap="round" stroke-linejoin="round"/>
<path d="M79.2998 113.386C48.076 118.907 26.5573 151.756 0.388916 157.142V170.429H595.343V90.273C566.211 90.273 562.323 114.754 548.614 108.015C534.905 101.276 520.504 54.9407 504.51 57.3913C488.516 59.8419 479.738 -5.18389 446.036 0.942634C412.335 7.06915 387.531 77.0437 360.683 47.0237C333.836 17.0038 328.13 32.8437 299.569 26.7171C271.008 20.5906 258.496 93.9832 231.444 91.6378C204.393 89.2925 197.171 150.336 169.565 144.674C136.111 137.813 139.023 133.97 124.148 125.07C109.274 116.171 95.9416 110.443 79.2998 113.386Z" fill="url(#paint0_linear_286_1670)"/>
<defs>
<linearGradient id="paint0_linear_286_1670" x1="297.866" y1="0.535172" x2="297.866" y2="241.495" gradientUnits="userSpaceOnUse">
<stop stop-color="#4767C0" stop-opacity="0.1"/>
<stop offset="0.998978" stop-color="white" stop-opacity="0"/>
</linearGradient>
</defs>
</svg>
