<svg width="26" height="23" viewBox="0 0 26 23" fill="none" xmlns="http://www.w3.org/2000/svg">
<path d="M15.1042 6.66663H13.2917V12.7083L18.4633 15.7775L19.3333 14.3154L15.1042 11.802V6.66663ZM14.5 0.624962C11.6158 0.624962 8.84967 1.77072 6.81021 3.81018C4.77076 5.84963 3.625 8.61573 3.625 11.5H0L4.785 16.3695L9.66667 11.5H6.04167C6.04167 9.25667 6.93281 7.10526 8.51906 5.51902C10.1053 3.93277 12.2567 3.04163 14.5 3.04163C16.7433 3.04163 18.8947 3.93277 20.4809 5.51902C22.0672 7.10526 22.9583 9.25667 22.9583 11.5C22.9583 13.7433 22.0672 15.8947 20.4809 17.4809C18.8947 19.0672 16.7433 19.9583 14.5 19.9583C12.1679 19.9583 10.0533 19.0037 8.53083 17.4691L6.815 19.185C7.81986 20.2005 9.01699 21.0056 10.3365 21.5533C11.656 22.101 13.0714 22.3804 14.5 22.375C17.3842 22.375 20.1503 21.2292 22.1898 19.1897C24.2292 17.1503 25.375 14.3842 25.375 11.5C25.375 8.61573 24.2292 5.84963 22.1898 3.81018C20.1503 1.77072 17.3842 0.624962 14.5 0.624962Z" fill="black"/>
</svg>
