<svg width="32" height="32" viewBox="0 0 32 32" fill="none" xmlns="http://www.w3.org/2000/svg">
<path fill-rule="evenodd" clip-rule="evenodd" d="M16 29C17.5759 29 19.1363 28.6896 20.5922 28.0866C22.0481 27.4835 23.371 26.5996 24.4853 25.4853C25.5996 24.371 26.4835 23.0481 27.0866 21.5922C27.6896 20.1363 28 18.5759 28 17C28 15.4241 27.6896 13.8637 27.0866 12.4078C26.4835 10.9519 25.5996 9.62902 24.4853 8.51472C23.371 7.40042 22.0481 6.5165 20.5922 5.91345C19.1363 5.31039 17.5759 5 16 5C12.8174 5 9.76516 6.26428 7.51472 8.51472C5.26428 10.7652 4 13.8174 4 17C4 20.1826 5.26428 23.2348 7.51472 25.4853C9.76516 27.7357 12.8174 29 16 29ZM15.6907 21.8533L22.3573 13.8533L20.3093 12.1467L14.576 19.0253L11.6093 16.0573L9.724 17.9427L13.724 21.9427L14.756 22.9747L15.6907 21.8533Z" fill="#4B65A2"/>
</svg>
