<svg width="14" height="18" viewBox="0 0 14 18" fill="none" xmlns="http://www.w3.org/2000/svg">
<g filter="url(#filter0_dd_286_1695)">
<path d="M0 7.09903C0 3.46827 2.94331 0.524952 6.57407 0.524952C10.2048 0.524952 13.1481 3.46827 13.1481 7.09903V11.4259C13.1481 15.0567 10.2048 18 6.57407 18C2.94331 18 0 15.0567 0 11.4259V7.09903Z" fill="#45579F" fill-opacity="0.87"/>
<path d="M6.57422 2.52495C9.10034 2.52503 11.1484 4.57302 11.1484 7.09917V11.4263C11.1482 13.9523 9.10021 15.9995 6.57422 15.9996C4.04816 15.9996 2.00022 13.9523 2 11.4263V7.09917C2 4.57297 4.04803 2.52495 6.57422 2.52495Z" stroke="white" stroke-width="4"/>
</g>
<defs>
<filter id="filter0_dd_286_1695" x="-5.33333" y="-2.14172" width="23.8149" height="28.1417" filterUnits="userSpaceOnUse" color-interpolation-filters="sRGB">
<feFlood flood-opacity="0" result="BackgroundImageFix"/>
<feColorMatrix in="SourceAlpha" type="matrix" values="0 0 0 0 0 0 0 0 0 0 0 0 0 0 0 0 0 0 127 0" result="hardAlpha"/>
<feOffset dy="2.66667"/>
<feGaussianBlur stdDeviation="2.66667"/>
<feColorMatrix type="matrix" values="0 0 0 0 0.196487 0 0 0 0 0.196487 0 0 0 0 0.279476 0 0 0 0.06 0"/>
<feBlend mode="multiply" in2="BackgroundImageFix" result="effect1_dropShadow_286_1695"/>
<feColorMatrix in="SourceAlpha" type="matrix" values="0 0 0 0 0 0 0 0 0 0 0 0 0 0 0 0 0 0 127 0" result="hardAlpha"/>
<feOffset dy="2.66667"/>
<feGaussianBlur stdDeviation="1.33333"/>
<feColorMatrix type="matrix" values="0 0 0 0 0.196487 0 0 0 0 0.196487 0 0 0 0 0.279476 0 0 0 0.06 0"/>
<feBlend mode="multiply" in2="effect1_dropShadow_286_1695" result="effect2_dropShadow_286_1695"/>
<feBlend mode="normal" in="SourceGraphic" in2="effect2_dropShadow_286_1695" result="shape"/>
</filter>
</defs>
</svg>
