<svg width="109" height="86" viewBox="0 0 109 86" fill="none" xmlns="http://www.w3.org/2000/svg">
<g filter="url(#filter0_dd_286_1690)">
<path fill-rule="evenodd" clip-rule="evenodd" d="M56.183 84.0105C54.9262 86.1667 52.8886 86.1667 51.6318 84.0105L49.609 80.7099C48.7549 79.3163 48.3279 78.6194 47.7449 78.1136C47.229 77.666 46.6269 77.3288 45.9757 77.1228C45.2398 76.8901 44.4225 76.8901 42.788 76.8901H12.6414C8.2457 76.8901 6.65171 76.2818 5.04472 75.1396C3.43772 73.9973 2.17654 72.3211 1.31711 70.1852C0.457682 68.0494 0 65.9309 0 60.0886V16.8015C0 10.9592 0.457682 8.84069 1.31711 6.70485C2.17654 4.56902 3.43772 2.8928 5.04472 1.75054C6.65171 0.608284 8.2457 -1.52588e-05 12.6414 -1.52588e-05H95.8308C100.227 -1.52588e-05 101.821 0.608284 103.427 1.75054C105.034 2.8928 106.296 4.56902 107.155 6.70485C108.015 8.84069 108.472 10.9592 108.472 16.8015V60.0886C108.472 65.9309 108.015 68.0494 107.155 70.1852C106.296 72.3211 105.034 73.9973 103.427 75.1396C101.821 76.2818 100.227 76.8901 95.8308 76.8901H68.8979C66.2235 76.8901 64.8862 76.8901 63.6651 77.2029C61.9785 77.635 60.4338 78.5 59.1841 79.7124C58.2793 80.59 57.5805 81.7302 56.183 84.0105Z" fill="white"/>
</g>
<defs>
<filter id="filter0_dd_286_1690" x="-16" y="-8.00002" width="140.472" height="117.628" filterUnits="userSpaceOnUse" color-interpolation-filters="sRGB">
<feFlood flood-opacity="0" result="BackgroundImageFix"/>
<feColorMatrix in="SourceAlpha" type="matrix" values="0 0 0 0 0 0 0 0 0 0 0 0 0 0 0 0 0 0 127 0" result="hardAlpha"/>
<feOffset dy="8"/>
<feGaussianBlur stdDeviation="8"/>
<feColorMatrix type="matrix" values="0 0 0 0 0.196487 0 0 0 0 0.196487 0 0 0 0 0.279476 0 0 0 0.06 0"/>
<feBlend mode="multiply" in2="BackgroundImageFix" result="effect1_dropShadow_286_1690"/>
<feColorMatrix in="SourceAlpha" type="matrix" values="0 0 0 0 0 0 0 0 0 0 0 0 0 0 0 0 0 0 127 0" result="hardAlpha"/>
<feOffset dy="8"/>
<feGaussianBlur stdDeviation="4"/>
<feColorMatrix type="matrix" values="0 0 0 0 0.196487 0 0 0 0 0.196487 0 0 0 0 0.279476 0 0 0 0.08 0"/>
<feBlend mode="multiply" in2="effect1_dropShadow_286_1690" result="effect2_dropShadow_286_1690"/>
<feBlend mode="normal" in="SourceGraphic" in2="effect2_dropShadow_286_1690" result="shape"/>
</filter>
</defs>
</svg>
