<svg width="26" height="25" viewBox="0 0 26 25" fill="none" xmlns="http://www.w3.org/2000/svg">
<path d="M12.1105 3.14897C12.5063 2.43751 12.7042 2.08334 13 2.08334C13.2959 2.08334 13.4938 2.43751 13.8896 3.14897L13.9917 3.3323C14.1042 3.53438 14.1605 3.63439 14.248 3.70105C14.3365 3.76772 14.4459 3.79272 14.6646 3.84168L14.8625 3.88751C15.6313 4.06147 16.0157 4.14793 16.1073 4.44168C16.199 4.73543 15.9365 5.04272 15.4125 5.65522L15.2771 5.81355C15.1282 5.98751 15.0532 6.07397 15.0198 6.1823C14.9865 6.29063 14.998 6.40626 15.0198 6.63855L15.0407 6.85001C15.1198 7.66772 15.1594 8.07709 14.9209 8.25834C14.6813 8.44063 14.3209 8.27397 13.6011 7.94272L13.4157 7.8573C13.2105 7.76355 13.1084 7.71563 13 7.71563C12.8917 7.71563 12.7896 7.76355 12.5844 7.8573L12.399 7.94272C11.6792 8.27397 11.3188 8.44063 11.0792 8.25834C10.8396 8.07709 10.8802 7.66772 10.9594 6.85001L10.9802 6.63855C11.0021 6.40626 11.0136 6.29063 10.9802 6.1823C10.9469 6.07397 10.8719 5.98751 10.723 5.81355L10.5875 5.65522C10.0636 5.04272 9.80108 4.73647 9.89275 4.44168C9.98442 4.14793 10.3688 4.06147 11.1375 3.88751L11.3355 3.84168C11.5542 3.79272 11.6636 3.76876 11.7521 3.70105C11.8396 3.63439 11.8959 3.53438 12.0084 3.3323L12.1105 3.14897ZM14.0417 10.4167H11.9584C10.4855 10.4167 9.749 10.4167 9.29171 10.875C8.83337 11.3313 8.83337 12.0677 8.83337 13.5417V22.9167H17.1667V13.5417C17.1667 12.0688 17.1667 11.3323 16.7084 10.875C16.2521 10.4167 15.5157 10.4167 14.0417 10.4167Z" fill="black"/>
<path opacity="0.5" d="M8.37504 20.25C7.91879 19.7917 7.18233 19.7917 5.70837 19.7917C4.23442 19.7917 3.499 19.7917 3.04171 20.25C2.58337 20.7062 2.58337 21.4427 2.58337 22.9167H8.83337C8.83337 21.4437 8.83337 20.7073 8.37504 20.25ZM17.1667 19.7917V22.9167H23.4167V19.7917C23.4167 18.3187 23.4167 17.5823 22.9584 17.125C22.5021 16.6667 21.7657 16.6667 20.2917 16.6667C18.8177 16.6667 18.0823 16.6667 17.625 17.125C17.1667 17.5812 17.1667 18.3177 17.1667 19.7917Z" fill="black"/>
</svg>
