<svg width="42" height="43" viewBox="0 0 42 43" fill="none" xmlns="http://www.w3.org/2000/svg">
<path d="M39.9651 0.395842C38.4719 0.137655 36.9597 0.00524574 35.4443 9.06301e-06C30.2742 -0.00422945 25.212 1.47829 20.861 4.27084C16.4988 1.51495 11.4373 0.0688233 6.27764 0.104176C4.76228 0.109412 3.25003 0.241821 1.75681 0.500009C1.26766 0.584339 0.824685 0.840548 0.50767 1.22249C0.190654 1.60444 0.0204261 2.08703 0.0276422 2.58334V27.5833C0.0231803 27.8895 0.0862384 28.1928 0.21233 28.4718C0.338421 28.7507 0.524446 28.9985 0.75717 29.1974C0.989893 29.3963 1.26359 29.5415 1.5588 29.6226C1.85401 29.7037 2.16346 29.7188 2.46514 29.6667C5.4506 29.1498 8.50931 29.2355 11.4611 29.9189C14.4129 30.6023 17.1981 31.8695 19.6526 33.6458L19.9026 33.7917H20.1318C20.3626 33.8891 20.6105 33.9393 20.861 33.9393C21.1115 33.9393 21.3594 33.8891 21.5901 33.7917H21.8193L22.0693 33.6458C24.5067 31.8298 27.2839 30.5215 30.2363 29.7987C33.1887 29.0758 36.2561 28.953 39.2568 29.4375C39.5585 29.4896 39.868 29.4745 40.1632 29.3934C40.4584 29.3123 40.7321 29.1671 40.9648 28.9682C41.1975 28.7693 41.3835 28.5216 41.5096 28.2426C41.6357 27.9636 41.6988 27.6603 41.6943 27.3542V2.35418C41.6726 1.8795 41.4893 1.42649 41.1748 1.0703C40.8603 0.714103 40.4335 0.476127 39.9651 0.395842ZM18.7776 28.0833C14.9223 26.058 10.6326 24.9998 6.27764 25H4.19431V4.16668C4.88822 4.12807 5.58373 4.12807 6.27764 4.16668C10.7222 4.16176 15.0698 5.46603 18.7776 7.91668V28.0833ZM37.5276 25.0833H35.4443C31.0894 25.0832 26.7996 26.1413 22.9443 28.1667V7.91668C26.6522 5.46603 30.9998 4.16176 35.4443 4.16668C36.1382 4.12807 36.8337 4.12807 37.5276 4.16668V25.0833ZM39.9651 33.7292C38.4719 33.471 36.9597 33.3386 35.4443 33.3333C30.2742 33.3291 25.212 34.8116 20.861 37.6042C16.51 34.8116 11.4477 33.3291 6.27764 33.3333C4.76228 33.3386 3.25003 33.471 1.75681 33.7292C1.48562 33.7722 1.22561 33.8684 0.99173 34.0123C0.757855 34.1562 0.554728 34.3449 0.394031 34.5675C0.233334 34.7902 0.118237 35.0424 0.0553583 35.3097C-0.00752014 35.577 -0.0169394 35.8541 0.0276422 36.125C0.133514 36.666 0.449497 37.143 0.906372 37.4515C1.36325 37.76 1.92377 37.8748 2.46514 37.7708C5.4506 37.2539 8.50931 37.3397 11.4611 38.0231C14.4129 38.7065 17.1981 39.9737 19.6526 41.75C20.0055 42.0012 20.4278 42.1362 20.861 42.1362C21.2941 42.1362 21.7165 42.0012 22.0693 41.75C24.5238 39.9737 27.309 38.7065 30.2608 38.0231C33.2126 37.3397 36.2714 37.2539 39.2568 37.7708C39.7982 37.8748 40.3587 37.76 40.8156 37.4515C41.2725 37.143 41.5884 36.666 41.6943 36.125C41.7389 35.8541 41.7295 35.577 41.6666 35.3097C41.6037 35.0424 41.4886 34.7902 41.3279 34.5675C41.1672 34.3449 40.9641 34.1562 40.7302 34.0123C40.4963 33.8684 40.2363 33.7722 39.9651 33.7292Z" fill="black"/>
</svg>
