<svg width="9" height="9" viewBox="0 0 9 9" fill="none" xmlns="http://www.w3.org/2000/svg">
<path d="M8.34522 8.82144L5.59521 6.07144M0.0952148 3.77978C0.0952148 4.2011 0.178201 4.6183 0.339435 5.00755C0.500669 5.3968 0.736993 5.75049 1.03491 6.04841C1.33284 6.34633 1.68652 6.58266 2.07577 6.74389C2.46503 6.90512 2.88222 6.98811 3.30355 6.98811C3.72487 6.98811 4.14207 6.90512 4.53132 6.74389C4.92058 6.58266 5.27426 6.34633 5.57218 6.04841C5.8701 5.75049 6.10643 5.3968 6.26766 5.00755C6.4289 4.6183 6.51188 4.2011 6.51188 3.77978C6.51188 3.35845 6.4289 2.94125 6.26766 2.552C6.10643 2.16275 5.8701 1.80906 5.57218 1.51114C5.27426 1.21322 4.92058 0.976895 4.53132 0.815661C4.14207 0.654428 3.72487 0.571442 3.30355 0.571442C2.88222 0.571442 2.46503 0.654428 2.07577 0.815661C1.68652 0.976895 1.33284 1.21322 1.03491 1.51114C0.736993 1.80906 0.500669 2.16275 0.339435 2.552C0.178201 2.94125 0.0952148 3.35845 0.0952148 3.77978Z" stroke="#828282" stroke-width="2" stroke-linecap="round" stroke-linejoin="round"/>
</svg>
