<svg width="26" height="30" viewBox="0 0 26 30" fill="none" xmlns="http://www.w3.org/2000/svg">
<path d="M25.5 24.0833V25.5H0V24.0833L2.83333 21.25V12.75C2.83333 8.35833 5.70917 4.49083 9.91667 3.24417V2.83333C9.91667 2.08189 10.2152 1.36122 10.7465 0.829864C11.2779 0.298511 11.9986 0 12.75 0C13.5014 0 14.2221 0.298511 14.7535 0.829864C15.2848 1.36122 15.5833 2.08189 15.5833 2.83333V3.24417C19.7908 4.49083 22.6667 8.35833 22.6667 12.75V21.25L25.5 24.0833ZM15.5833 26.9167C15.5833 27.6681 15.2848 28.3888 14.7535 28.9201C14.2221 29.4515 13.5014 29.75 12.75 29.75C11.9986 29.75 11.2779 29.4515 10.7465 28.9201C10.2152 28.3888 9.91667 27.6681 9.91667 26.9167" fill="black"/>
</svg>
