<svg width="30" height="31" viewBox="0 0 30 31" fill="none" xmlns="http://www.w3.org/2000/svg">
<path d="M25.5 17V21.5L21 17H12C11.2044 17 10.4413 16.6839 9.87868 16.1213C9.31607 15.5587 9 14.7956 9 14V3.5C9 1.85 10.35 0.5 12 0.5H27C27.7957 0.5 28.5587 0.816071 29.1213 1.37868C29.6839 1.94129 30 2.70435 30 3.5V14C30 14.7956 29.6839 15.5587 29.1213 16.1213C28.5587 16.6839 27.7957 17 27 17H25.5ZM21 20V23C21 23.7956 20.6839 24.5587 20.1213 25.1213C19.5587 25.6839 18.7957 26 18 26H9L4.5 30.5V26H3C2.20435 26 1.44129 25.6839 0.87868 25.1213C0.316071 24.5587 0 23.7956 0 23V12.5C0 10.85 1.35 9.5 3 9.5H6V14C6 15.5913 6.63214 17.1174 7.75736 18.2426C8.88258 19.3679 10.4087 20 12 20H21Z" fill="black"/>
</svg>
