<svg width="60" height="60" viewBox="0 0 60 60" fill="none" xmlns="http://www.w3.org/2000/svg">
<path d="M44 32V38L38 32H26C24.9391 32 23.9217 31.5786 23.1716 30.8284C22.4214 30.0783 22 29.0609 22 28V14C22 11.8 23.8 10 26 10H46C47.0609 10 48.0783 10.4214 48.8284 11.1716C49.5786 11.9217 50 12.9391 50 14V28C50 29.0609 49.5786 30.0783 48.8284 30.8284C48.0783 31.5786 47.0609 32 46 32H44ZM38 36V40C38 41.0609 37.5786 42.0783 36.8284 42.8284C36.0783 43.5786 35.0609 44 34 44H22L16 50V44H14C12.9391 44 11.9217 43.5786 11.1716 42.8284C10.4214 42.0783 10 41.0609 10 40V26C10 23.8 11.8 22 14 22H18V28C18 30.1217 18.8429 32.1566 20.3431 33.6569C21.8434 35.1571 23.8783 36 26 36H38Z" fill="black"/>
</svg>
