<svg width="65" height="65" viewBox="0 0 65 65" fill="none" xmlns="http://www.w3.org/2000/svg">
<path fill-rule="evenodd" clip-rule="evenodd" d="M32.836 10.3801C35.7251 10.3801 38.5858 10.9491 41.2549 12.0547C43.9241 13.1603 46.3493 14.7808 48.3922 16.8236C50.435 18.8665 52.0555 21.2917 53.1611 23.9608C54.2667 26.6299 54.8357 29.4907 54.8357 32.3797C54.8357 44.5298 44.9861 54.3794 32.836 54.3794C20.686 54.3794 10.8364 44.5298 10.8364 32.3797C10.8364 20.2297 20.686 10.3801 32.836 10.3801ZM35.0361 34.5798H30.6361C25.1896 34.5798 20.5137 37.8784 18.4969 42.5871C21.688 47.0617 26.9213 49.9795 32.836 49.9795C38.7508 49.9795 43.9841 47.0617 47.1752 42.5868C45.1584 37.8784 40.4825 34.5798 35.0361 34.5798ZM32.836 16.98C29.191 16.98 26.2361 19.9349 26.2361 23.5799C26.2361 27.2249 29.191 30.1798 32.836 30.1798C36.481 30.1798 39.4359 27.2249 39.4359 23.5799C39.4359 19.9349 36.4811 16.98 32.836 16.98Z" fill="#4B65A2"/>
</svg>
