<svg width="49" height="46" viewBox="0 0 49 46" fill="none" xmlns="http://www.w3.org/2000/svg">
<path d="M10.005 24.7446C9.98844 24.9309 10.0133 25.1183 10.0779 25.2951C10.1425 25.4719 10.2455 25.6342 10.3804 25.7717C10.5152 25.9092 10.679 26.0189 10.8613 26.0939C11.0437 26.1689 11.2406 26.2075 11.4396 26.2073H14.1904C14.5718 26.2073 14.9376 26.065 15.2074 25.8117C15.4771 25.5584 15.6286 25.2149 15.6286 24.8567V11.3506C15.6286 10.9924 15.4771 10.6489 15.2074 10.3956C14.9376 10.1423 14.5718 10 14.1904 10H12.637C12.2762 10 11.9286 10.1274 11.6632 10.3568C11.3977 10.5862 11.2337 10.9009 11.2038 11.2385L10.005 24.7446ZM19.9435 24.6041C19.9435 25.168 20.3174 25.6731 20.8604 25.9142C22.0462 26.4389 24.0663 27.4944 24.9774 28.922C26.1518 30.7609 26.3733 34.0841 26.4092 34.8451C26.4143 34.9518 26.4114 35.0585 26.4265 35.1639C26.6214 36.4827 29.3318 34.9424 30.371 33.3135C30.9355 32.4302 31.0074 31.2694 30.9484 30.3624C30.8844 29.3934 30.5817 28.4561 30.2847 27.5255L29.6518 25.5421H37.4595C37.6818 25.5421 37.9009 25.4938 38.0999 25.4009C38.2989 25.308 38.4723 25.1731 38.6064 25.0067C38.7405 24.8403 38.8318 24.647 38.873 24.442C38.9142 24.2369 38.9042 24.0257 38.8439 23.8248L34.9821 10.9832C34.8968 10.7 34.7154 10.4507 34.4654 10.2732C34.2154 10.0957 33.9105 9.99979 33.597 10H21.3817C21.0003 10 20.6345 10.1423 20.3647 10.3956C20.095 10.6489 19.9435 10.9924 19.9435 11.3506V24.6041Z" fill="#C5C5D0" stroke="#C5C5D0" stroke-width="2" stroke-linecap="round" stroke-linejoin="round"/>
</svg>
