<svg width="51" height="51" viewBox="0 0 51 51" fill="none" xmlns="http://www.w3.org/2000/svg">
<path d="M36.4573 14.5427C33.5901 11.5516 29.6225 9.93973 25.5 10.0017C21.3775 9.93973 17.4254 11.5516 14.5582 14.5427C11.5516 17.4099 9.93973 21.3775 10.0017 25.5C9.93973 29.6225 11.5516 33.5746 14.5427 36.4418C17.4099 39.4484 21.3775 41.0603 25.5 40.9983C29.6225 41.0603 33.5746 39.4484 36.4418 36.4573C39.4484 33.5901 41.0603 29.6225 40.9983 25.5C41.0603 21.3775 39.4484 17.4099 36.4573 14.5427ZM33.2491 25.5V34.799H27.8247V27.0498H23.1753V34.799H17.7509V25.5H14.6512L25.5 14.6512L37.1237 25.5H33.2491Z" fill="#364A79"/>
</svg>
