<svg width="65" height="65" viewBox="0 0 65 65" fill="none" xmlns="http://www.w3.org/2000/svg">
<path fill-rule="evenodd" clip-rule="evenodd" d="M32.836 10.3999C35.7251 10.3999 38.5858 10.9689 41.2549 12.0745C43.9241 13.1801 46.3493 14.8005 48.3922 16.8434C50.435 18.8863 52.0555 21.3115 53.1611 23.9806C54.2667 26.6497 54.8357 29.5105 54.8357 32.3995C54.8357 44.5496 44.9861 54.3992 32.836 54.3992C20.686 54.3992 10.8364 44.5496 10.8364 32.3995C10.8364 20.2495 20.686 10.3999 32.836 10.3999ZM35.0361 34.5995H30.6361C25.1896 34.5995 20.5137 37.8981 18.4969 42.6069C21.688 47.0815 26.9213 49.9992 32.836 49.9992C38.7508 49.9992 43.9841 47.0815 47.1752 42.6065C45.1584 37.8981 40.4825 34.5995 35.0361 34.5995ZM32.836 16.9998C29.191 16.9998 26.2361 19.9547 26.2361 23.5997C26.2361 27.2447 29.191 30.1996 32.836 30.1996C36.481 30.1996 39.4359 27.2447 39.4359 23.5997C39.4359 19.9547 36.4811 16.9998 32.836 16.9998Z" fill="#4B65A2"/>
</svg>
