<svg width="22" height="20" viewBox="0 0 22 20" fill="none" xmlns="http://www.w3.org/2000/svg">
<path d="M0.00360937 11.2277C-0.00840632 11.3696 0.00965478 11.5123 0.0566495 11.647C0.103644 11.7816 0.17855 11.9052 0.276625 12.0099C0.374701 12.1146 0.493812 12.1981 0.626421 12.2552C0.75903 12.3123 0.902249 12.3417 1.04702 12.3416H3.04753C3.32495 12.3416 3.59101 12.2332 3.78718 12.0403C3.98334 11.8475 4.09355 11.5859 4.09355 11.3131V1.02846C4.09355 0.755698 3.98334 0.494105 3.78718 0.30123C3.59101 0.108356 3.32495 2.54077e-07 3.04753 2.54077e-07H1.91783C1.65544 1.30363e-05 1.40265 0.0969793 1.20957 0.271669C1.0165 0.446358 0.897246 0.686012 0.875468 0.943102L0.00360937 11.2277ZM7.23161 11.1208C7.23161 11.5502 7.50358 11.9348 7.89845 12.1184C8.76089 12.5179 10.23 13.3217 10.8927 14.4088C11.7468 15.809 11.9078 18.3396 11.934 18.9191C11.9377 19.0004 11.9356 19.0816 11.9465 19.1618C12.0883 20.1661 14.0595 18.9932 14.8153 17.7528C15.2258 17.0802 15.2781 16.1962 15.2352 15.5056C15.1887 14.7677 14.9685 14.054 14.7525 13.3453L14.2923 11.835H19.9706C20.1322 11.8351 20.2916 11.7982 20.4363 11.7275C20.581 11.6568 20.7071 11.554 20.8047 11.4273C20.9022 11.3006 20.9686 11.1534 20.9985 10.9973C21.0285 10.8411 21.0212 10.6803 20.9774 10.5274L18.1688 0.748722C18.1068 0.533054 17.9748 0.343202 17.793 0.20805C17.6112 0.0728975 17.3894 -0.000157228 17.1615 2.54077e-07H8.27763C8.00021 2.54077e-07 7.73415 0.108356 7.53798 0.30123C7.34182 0.494105 7.23161 0.755698 7.23161 1.02846V11.1208Z" fill="#C5C5D0" stroke="#C5C5D0" stroke-width="2" stroke-linecap="round" stroke-linejoin="round"/>
</svg>
