<svg width="22" height="20" viewBox="0 0 22 20" fill="none" xmlns="http://www.w3.org/2000/svg">
<path d="M0.00392075 8.8309C-0.00861917 8.6889 0.00899889 8.54588 0.0556571 8.41093C0.102315 8.27598 0.176995 8.15203 0.274957 8.04696C0.372919 7.94189 0.492024 7.85799 0.624716 7.80058C0.757407 7.74318 0.900787 7.71351 1.04576 7.71347H3.04313C3.32055 7.71347 3.58661 7.82183 3.78278 8.01471C3.97895 8.20758 4.08915 8.46917 4.08915 8.74194V18.5123C4.08915 18.7851 3.97895 19.0467 3.78278 19.2396C3.58661 19.4325 3.32055 19.5408 3.04313 19.5408H1.91029C1.64849 19.5409 1.39618 19.4444 1.20319 19.2705C1.01021 19.0965 0.89058 18.8577 0.867934 18.6013L0.00392075 8.8309ZM7.22721 8.42054C7.22721 7.99065 7.49918 7.606 7.89405 7.42293C8.7565 7.02286 10.2256 6.21912 10.8883 5.13255C11.7424 3.73178 11.9034 1.20124 11.9296 0.621703C11.9333 0.540455 11.9312 0.459206 11.9422 0.378986C12.0839 -0.625309 14.0551 0.547654 14.8109 1.78798C15.2214 2.4606 15.2737 3.34456 15.2308 4.03517C15.1843 4.77361 14.9641 5.48685 14.7481 6.19546L14.2879 7.70576H19.9662C20.1278 7.70575 20.2872 7.74256 20.4319 7.8133C20.5766 7.88405 20.7027 7.9868 20.8003 8.11349C20.8978 8.24019 20.9642 8.38738 20.9941 8.54353C21.0241 8.69967 21.0168 8.86052 20.973 9.01345L18.1644 18.7921C18.1024 19.0078 17.9704 19.1976 17.7886 19.3328C17.6068 19.4679 17.385 19.541 17.1571 19.5408H8.27324C7.99581 19.5408 7.72975 19.4325 7.53359 19.2396C7.33742 19.0467 7.22721 18.7851 7.22721 18.5123V8.42054Z" fill="#6B74C4" stroke="#6B74C4" stroke-width="2" stroke-linecap="round" stroke-linejoin="round"/>
</svg>
