<svg width="27" height="27" viewBox="0 0 27 27" fill="none" xmlns="http://www.w3.org/2000/svg">
<path d="M21.5 20.1667V22.8334C21.5 23.187 21.6404 23.5262 21.8905 23.7762C22.1405 24.0263 22.4797 24.1667 22.8333 24.1667C23.1869 24.1667 23.5261 24.0263 23.7761 23.7762C24.0262 23.5262 23.8724 13.8837 23.8724 14.744H8.12366V12.6794L23.8724 12.5447V8.55042H8.12366V6.3603H23.8724V2.83341H5.49996V17.5001H2.83329V1.50008C2.83329 1.14646 2.97377 0.80732 3.22382 0.557272C3.47387 0.307224 3.813 0.166748 4.16663 0.166748H25.5C25.8536 0.166748 26.1927 0.307224 26.4428 0.557272C26.6928 0.80732 26.8333 1.14646 26.8333 1.50008V22.8334C26.8333 23.8943 26.4119 24.9117 25.6617 25.6618C24.9116 26.412 23.8942 26.8334 22.8333 26.8334H4.16663C3.10576 26.8334 2.08834 26.412 1.3382 25.6618C0.588054 24.9117 0.166626 23.8943 0.166626 22.8334V20.1667H21.5Z" fill="#696969"/>
</svg>
