<svg width="20" height="27" viewBox="0 0 20 27" fill="none" xmlns="http://www.w3.org/2000/svg">
<path d="M2.93317 2.49278L17.066 14.8289L11.2924 15.3173L10.2433 15.4053L10.6793 16.2999L14.183 23.4496L11.5995 24.5083L8.25689 17.2816L7.83705 16.371L7.06179 17.0494L2.96109 20.6338L2.93317 2.49278ZM2.93317 0.491455C2.65088 0.491455 2.37137 0.54332 2.11061 0.644083C1.84985 0.744847 1.61296 0.892532 1.4135 1.07869C1.21404 1.26485 1.05593 1.48583 0.948192 1.72898C0.840459 1.97214 0.785224 2.23271 0.785647 2.49578L0.813565 20.6348C0.814983 21.1648 1.04162 21.6727 1.44388 22.0474C1.84614 22.4221 2.39128 22.633 2.96002 22.6341C3.4969 22.6341 4.02411 22.446 4.43 22.0927L7.07468 19.7802L9.62701 25.2999C9.79421 25.6579 10.0697 25.9629 10.4197 26.1776C10.7698 26.3922 11.1794 26.5073 11.5984 26.5087C11.8926 26.5086 12.1879 26.4516 12.4639 26.3395L15.0474 25.2798C15.3077 25.173 15.5426 25.019 15.7385 24.8268C15.9344 24.6346 16.0874 24.4081 16.1886 24.1604C16.2898 23.9127 16.3372 23.6487 16.328 23.3837C16.3188 23.1188 16.2532 22.8582 16.1351 22.6171L13.4528 17.1435L17.2582 16.8212C17.6711 16.7872 18.0646 16.6424 18.3911 16.4044C18.7175 16.1664 18.963 15.8453 19.0978 15.48C19.2327 15.1147 19.251 14.7209 19.1508 14.346C19.0505 13.9712 18.8359 13.6315 18.5328 13.368L4.40101 1.03181C4.00306 0.684604 3.47831 0.491428 2.93317 0.491455Z" fill="#696969"/>
</svg>
